<svg width="98" height="70" viewBox="0 0 98 70" fill="none" xmlns="http://www.w3.org/2000/svg">
<path d="M97.219 61.2085C97.4768 60.7201 97.29 60.1151 96.8016 59.8572L88.8429 55.6549C88.3545 55.3971 87.7496 55.5839 87.4917 56.0723C87.2338 56.5607 87.4207 57.1657 87.9091 57.4235L94.9834 61.1589L91.2481 68.2333C90.9902 68.7217 91.1771 69.3266 91.6654 69.5845C92.1538 69.8424 92.7588 69.6555 93.0167 69.1671L97.219 61.2085ZM0.500172 0.981474C0.138709 20.4891 7.0479 40.9623 22.7 53.9236C38.3907 66.9169 62.6566 72.1909 96.6298 61.697L96.0395 59.7861C62.5152 70.1413 39.0065 64.8301 23.9756 52.3832C8.90599 39.9043 2.14659 20.0822 2.49983 1.01853L0.500172 0.981474Z" fill="#1C75A4"/>
</svg>
