<svg width="80" height="80" viewBox="0 0 80 80" fill="none" xmlns="http://www.w3.org/2000/svg">
<rect x="1" y="1" width="78" height="78" rx="39" fill="white"/>
<rect x="1" y="1" width="78" height="78" rx="39" stroke="#DAE2E7" stroke-width="2"/>
<path d="M8.68 44.988V42.916L20.16 40.284V42.356L8.68 44.988ZM34.2797 50.336C31.8343 50.336 29.837 50.0653 28.2877 49.524C26.7383 48.9827 25.609 48.2547 24.8997 47.34C24.209 46.4067 23.8637 45.3427 23.8637 44.148V43.84H26.7477V44.064C26.7477 44.8107 26.9903 45.4827 27.4757 46.08C27.961 46.6587 28.7637 47.1253 29.8837 47.48C31.0223 47.8347 32.497 48.012 34.3077 48.012C36.0997 48.012 37.5557 47.8253 38.6757 47.452C39.7957 47.06 40.6077 46.5373 41.1117 45.884C41.6157 45.2307 41.8677 44.4747 41.8677 43.616C41.8677 42.2907 41.261 41.2267 40.0477 40.424C38.853 39.6213 36.921 39.22 34.2517 39.22C31.8623 39.22 30.0797 39.4907 28.9037 40.032C27.7463 40.5733 26.9623 41.1893 26.5517 41.88H23.6677L25.0117 30.4H44.1917V32.724H27.2237L26.2997 39.976H26.6637C27.2237 39.136 28.1663 38.436 29.4917 37.876C30.817 37.316 32.693 37.036 35.1197 37.036C38.4423 37.036 40.8783 37.624 42.4277 38.8C43.977 39.9573 44.7517 41.5813 44.7517 43.672C44.7517 45.0347 44.397 46.2107 43.6877 47.2C42.997 48.1893 41.877 48.964 40.3277 49.524C38.7783 50.0653 36.7623 50.336 34.2797 50.336ZM50.6363 50L65.1963 30.4H67.7163L53.1562 50H50.6363ZM53.0163 40.032C51.9149 40.032 50.9536 39.8173 50.1323 39.388C49.3109 38.9587 48.6763 38.3707 48.2283 37.624C47.7803 36.8587 47.5563 36 47.5563 35.048C47.5563 34.096 47.7803 33.2467 48.2283 32.5C48.6763 31.7347 49.3109 31.1373 50.1323 30.708C50.9536 30.2787 51.9149 30.064 53.0163 30.064C54.1176 30.064 55.0789 30.2787 55.9003 30.708C56.7216 31.1373 57.3563 31.7347 57.8043 32.5C58.2523 33.2467 58.4763 34.096 58.4763 35.048C58.4763 36 58.2523 36.8587 57.8043 37.624C57.3563 38.3707 56.7216 38.9587 55.9003 39.388C55.0789 39.8173 54.1176 40.032 53.0163 40.032ZM53.0163 38.296C53.7256 38.296 54.3509 38.156 54.8923 37.876C55.4336 37.596 55.8536 37.2133 56.1523 36.728C56.4509 36.224 56.6003 35.664 56.6003 35.048C56.6003 34.1147 56.2736 33.34 55.6203 32.724C54.9669 32.108 54.0989 31.8 53.0163 31.8C52.3069 31.8 51.6816 31.94 51.1403 32.22C50.5989 32.5 50.1789 32.892 49.8803 33.396C49.5816 33.8813 49.4323 34.432 49.4323 35.048C49.4323 35.9813 49.7589 36.756 50.4123 37.372C51.0656 37.988 51.9336 38.296 53.0163 38.296ZM65.3363 50.336C64.2349 50.336 63.2736 50.1213 62.4523 49.692C61.6309 49.2627 60.9963 48.6747 60.5482 47.928C60.1003 47.1627 59.8763 46.304 59.8763 45.352C59.8763 44.4 60.1003 43.5507 60.5482 42.804C60.9963 42.0387 61.6309 41.4413 62.4523 41.012C63.2736 40.5827 64.2349 40.368 65.3363 40.368C66.4376 40.368 67.3989 40.5827 68.2203 41.012C69.0416 41.4413 69.6763 42.0387 70.1243 42.804C70.5723 43.5507 70.7963 44.4 70.7963 45.352C70.7963 46.304 70.5723 47.1627 70.1243 47.928C69.6763 48.6747 69.0416 49.2627 68.2203 49.692C67.3989 50.1213 66.4376 50.336 65.3363 50.336ZM65.3363 48.6C66.0456 48.6 66.6709 48.46 67.2123 48.18C67.7536 47.9 68.1736 47.5173 68.4723 47.032C68.7709 46.528 68.9203 45.968 68.9203 45.352C68.9203 44.4187 68.5936 43.644 67.9403 43.028C67.2869 42.412 66.4189 42.104 65.3363 42.104C64.6269 42.104 64.0016 42.244 63.4603 42.524C62.9189 42.804 62.4989 43.196 62.2003 43.7C61.9016 44.1853 61.7523 44.736 61.7523 45.352C61.7523 46.2853 62.0789 47.06 62.7323 47.676C63.3856 48.292 64.2536 48.6 65.3363 48.6Z" fill="#484D50"/>
</svg>
