<svg width="81" height="80" viewBox="0 0 81 80" fill="none" xmlns="http://www.w3.org/2000/svg">
<rect x="1.5" y="1" width="78" height="78" rx="39" fill="white"/>
<rect x="1.5" y="1" width="78" height="78" rx="39" stroke="#DAE2E7" stroke-width="2"/>
<path d="M10.18 44.988V42.916L21.66 40.284V42.356L10.18 44.988ZM22.3797 50L32.0957 40.06L22.6597 30.4H26.3277L32.6557 37.064C33.1037 37.5307 33.4304 37.9133 33.6357 38.212C33.8597 38.492 33.9717 38.7627 33.9717 39.024V39.164H34.3357V39.024C34.3357 38.7627 34.4384 38.492 34.6437 38.212C34.8677 37.9133 35.2037 37.5307 35.6517 37.064L41.9797 30.4H45.6477L36.2117 40.06L45.9277 50H42.1757L35.5397 43.084C35.129 42.6547 34.821 42.3093 34.6157 42.048C34.429 41.768 34.3357 41.5067 34.3357 41.264V41.124H33.9717V41.264C33.9717 41.5067 33.869 41.768 33.6637 42.048C33.477 42.3093 33.1784 42.6547 32.7677 43.084L26.1317 50H22.3797ZM51.0972 50L65.6572 30.4H68.1772L53.6172 50H51.0972ZM53.4772 40.032C52.3759 40.032 51.4145 39.8173 50.5932 39.388C49.7719 38.9587 49.1372 38.3707 48.6892 37.624C48.2412 36.8587 48.0172 36 48.0172 35.048C48.0172 34.096 48.2412 33.2467 48.6892 32.5C49.1372 31.7347 49.7719 31.1373 50.5932 30.708C51.4145 30.2787 52.3759 30.064 53.4772 30.064C54.5785 30.064 55.5399 30.2787 56.3612 30.708C57.1825 31.1373 57.8172 31.7347 58.2652 32.5C58.7132 33.2467 58.9372 34.096 58.9372 35.048C58.9372 36 58.7132 36.8587 58.2652 37.624C57.8172 38.3707 57.1825 38.9587 56.3612 39.388C55.5399 39.8173 54.5785 40.032 53.4772 40.032ZM53.4772 38.296C54.1865 38.296 54.8119 38.156 55.3532 37.876C55.8945 37.596 56.3145 37.2133 56.6132 36.728C56.9119 36.224 57.0612 35.664 57.0612 35.048C57.0612 34.1147 56.7345 33.34 56.0812 32.724C55.4279 32.108 54.5599 31.8 53.4772 31.8C52.7679 31.8 52.1425 31.94 51.6012 32.22C51.0599 32.5 50.6399 32.892 50.3412 33.396C50.0425 33.8813 49.8932 34.432 49.8932 35.048C49.8932 35.9813 50.2199 36.756 50.8732 37.372C51.5265 37.988 52.3945 38.296 53.4772 38.296ZM65.7972 50.336C64.6959 50.336 63.7345 50.1213 62.9132 49.692C62.0919 49.2627 61.4572 48.6747 61.0092 47.928C60.5612 47.1627 60.3372 46.304 60.3372 45.352C60.3372 44.4 60.5612 43.5507 61.0092 42.804C61.4572 42.0387 62.0919 41.4413 62.9132 41.012C63.7345 40.5827 64.6959 40.368 65.7972 40.368C66.8985 40.368 67.8599 40.5827 68.6812 41.012C69.5025 41.4413 70.1372 42.0387 70.5852 42.804C71.0332 43.5507 71.2572 44.4 71.2572 45.352C71.2572 46.304 71.0332 47.1627 70.5852 47.928C70.1372 48.6747 69.5025 49.2627 68.6812 49.692C67.8599 50.1213 66.8985 50.336 65.7972 50.336ZM65.7972 48.6C66.5065 48.6 67.1319 48.46 67.6732 48.18C68.2145 47.9 68.6345 47.5173 68.9332 47.032C69.2319 46.528 69.3812 45.968 69.3812 45.352C69.3812 44.4187 69.0545 43.644 68.4012 43.028C67.7479 42.412 66.8799 42.104 65.7972 42.104C65.0879 42.104 64.4625 42.244 63.9212 42.524C63.3799 42.804 62.9599 43.196 62.6612 43.7C62.3625 44.1853 62.2132 44.736 62.2132 45.352C62.2132 46.2853 62.5399 47.06 63.1932 47.676C63.8465 48.292 64.7145 48.6 65.7972 48.6Z" fill="#484D50"/>
</svg>
