<svg width="100" height="60" viewBox="0 0 100 60" fill="none" xmlns="http://www.w3.org/2000/svg">
<g clip-path="url(#clip0_157_1611)">
<path d="M47.0983 2.85058C46.2185 3.30965 45.7211 4.18953 45.7211 5.24155C45.7211 6.37009 46.2376 7.19259 47.194 7.65166C47.8443 7.9577 48.3799 8.03421 50.2353 8.03421C52.0524 8.03421 52.7984 8.12985 54.1756 8.51241C55.725 8.95234 59.5123 10.253 59.6653 10.4061C59.7035 10.4252 59.3019 11.1712 58.7663 12.0319C57.7525 13.7343 56.8918 15.781 56.3562 17.8276L56.0119 19.1283H45.8168H35.6408L34.3975 19.5874C32.0065 20.4481 30.132 22.3609 29.3095 24.7519C29.0991 25.3831 28.9269 26.2056 28.9269 26.6073V27.3533L15.6714 27.3915L2.43496 27.4489L1.82287 28.9791C1.47857 29.8208 1.19165 30.6433 1.19165 30.8154C1.19165 31.1597 2.85577 31.4849 10.3156 32.6134C22.0027 34.354 33.0203 35.2913 44.4204 35.5017C64.6576 35.8843 81.7961 33.5316 94.2101 28.654C95.549 28.1375 96.6393 27.6402 96.6393 27.5446C96.6393 27.2003 89.9063 21.0985 86.3103 18.1719C78.1045 11.5346 69.8987 6.88655 66.3791 6.88655C66.0157 6.88655 64.7724 6.48486 63.6247 6.00667C61.1955 4.97377 57.9629 3.84523 55.1511 3.06099C53.3722 2.54454 52.8749 2.48715 50.4648 2.48715C48.1886 2.48715 47.653 2.54454 47.0983 2.85058ZM82.1978 19.1092C84.5505 20.6968 86.5781 22.4374 86.9415 23.1834C87.4197 24.1398 87.0563 24.3885 85.2009 24.3693C82.7717 24.3311 81.031 23.2982 80.2468 21.4428C80.0746 21.0602 79.9025 20.0273 79.8451 19.1475C79.7303 17.2921 79.5008 17.2921 82.1978 19.1092Z" fill="white"/>
<path d="M96.543 30.3372C94.4007 31.2936 88.7963 33.149 85.7358 33.9332C78.582 35.7695 71.5621 36.8598 62.113 37.6249C57.0059 38.0266 41.5889 38.084 35.9079 37.7205C24.2209 36.9554 15.3073 35.9608 4.7679 34.201C2.79774 33.8758 1.13362 33.6654 1.07624 33.7228C0.540659 34.2584 2.77861 36.8024 5.13133 38.3135C8.72735 40.6279 13.9875 42.6937 19.9362 44.1283C21.2561 44.4344 22.2124 44.5683 22.748 44.4918C23.8957 44.3387 25.732 43.4397 27.2813 42.2921C28.8689 41.1061 29.328 41.0679 30.7434 41.986C33.4022 43.6693 35.1811 44.224 38.2033 44.2431C39.657 44.2622 40.4795 44.1666 41.6272 43.8414C43.9416 43.1719 44.6302 42.6937 47.1742 40.0159C48.8001 38.2752 49.0679 38.3135 51.3058 40.6279C54.1176 43.5162 56.126 44.3196 60.2385 44.1475C63.0694 44.0136 64.4849 43.5928 66.6272 42.1773C68.6739 40.8575 69.0564 40.8384 70.5484 42.0051C72.0403 43.1528 73.3602 43.8988 74.6226 44.2622C75.6364 44.5683 75.6364 44.5683 78.429 43.784C87.1704 41.3357 93.999 38.0648 97.0404 34.8705C98.7236 33.1107 99.2401 31.6953 98.8192 30.0694C98.6662 29.5147 98.3602 29.553 96.543 30.3372Z" fill="white"/>
<path fill-rule="evenodd" clip-rule="evenodd" d="M20.1338 50.2487C18.397 51.3347 16.5383 51.779 14.0146 51.7655C11.5828 51.7486 10.0292 51.3939 8.17154 50.4651L7.0063 49.8909L5.9086 50.6171C4.67581 51.4446 2.49731 52.3059 1.1463 52.4747C-0.272257 52.6605 -0.407358 52.8632 0.926762 52.8632C2.46353 52.8632 4.35494 52.5254 5.82416 51.9681L6.98941 51.5121L7.93511 52.0188C11.3827 53.8625 16.307 54.1894 20.1338 52.9407V50.2487ZM77.9175 52.8626C78.2186 52.97 78.5353 53.0762 78.8325 53.1671C80.2004 53.5724 80.555 53.6231 83.3583 53.6231C85.7057 53.64 86.6345 53.5724 87.4114 53.3529C89.1339 52.88 90.316 52.3734 91.3631 51.681L92.3594 51.0224L93.0856 51.4277C94.521 52.2214 96.5475 52.7281 98.5572 52.8125C100.567 52.88 100.499 52.7956 98.2194 52.289C96.4293 51.9006 94.7406 51.0731 93.4065 49.9416C92.3932 49.0803 92.2919 49.0297 91.971 49.2492C89.7081 50.9042 87.8335 51.5459 85.0133 51.6641C82.1461 51.7655 79.9121 51.2087 77.9175 49.8342V52.8626Z" fill="white"/>
<path d="M25.6032 54.6397C24.8843 54.6397 24.2832 54.531 23.7999 54.3135C23.3166 54.09 22.9541 53.7728 22.7125 53.362C22.4708 52.9512 22.35 52.4588 22.35 51.8849V51.7218H24.3074V51.8124C24.3074 52.0722 24.3557 52.2927 24.4524 52.4739C24.549 52.6552 24.694 52.7941 24.8873 52.8908C25.0807 52.9814 25.3193 53.0267 25.6032 53.0267C26.0261 53.0267 26.3463 52.921 26.5638 52.7095C26.7873 52.4981 26.8991 52.1991 26.8991 51.8124V49.7826H23.2562V48.1695H28.8564V51.8577C28.8564 52.7337 28.5816 53.4164 28.0318 53.9057C27.4881 54.3951 26.6786 54.6397 25.6032 54.6397ZM30.0675 54.5129V48.1695H36.4833V49.6738H32.0249V53.0086H36.4833V54.5129H30.0675ZM31.7892 51.9574V50.6253H35.849V51.9574H31.7892ZM39.2972 54.5129V49.7826H36.8233V48.1695H43.7285V49.7826H41.2546V54.5129H39.2972ZM47.71 54.6397C46.3931 54.6397 45.4265 54.4192 44.8102 53.9782C44.194 53.5372 43.8859 52.9421 43.8859 52.193V52.0843H45.8795V52.1477C45.8795 52.4679 46.0185 52.7186 46.2964 52.8998C46.5803 53.0811 47.0516 53.1717 47.71 53.1717C48.1752 53.1717 48.5407 53.1445 48.8065 53.0901C49.0784 53.0297 49.2627 52.9542 49.3593 52.8636C49.462 52.7669 49.5134 52.6582 49.5134 52.5374C49.5134 52.3501 49.4227 52.2142 49.2415 52.1296C49.0663 52.039 48.8428 51.9786 48.5709 51.9484C48.3051 51.9181 47.9396 51.891 47.4744 51.8668C46.7434 51.8366 46.1393 51.7822 45.6621 51.7037C45.1908 51.6251 44.7831 51.456 44.4387 51.1962C44.1004 50.9364 43.9312 50.5438 43.9312 50.0182C43.9312 49.4201 44.2212 48.9428 44.8012 48.5864C45.3872 48.2239 46.3508 48.0427 47.6919 48.0427C48.5619 48.0427 49.2747 48.1484 49.8305 48.3598C50.3924 48.5652 50.8032 48.8431 51.0629 49.1935C51.3288 49.5379 51.4617 49.9336 51.4617 50.3806V50.4622H49.4681V50.3806C49.4681 50.2296 49.4076 50.0876 49.2868 49.9547C49.172 49.8218 48.9817 49.7161 48.7159 49.6376C48.4501 49.553 48.1088 49.5107 47.6919 49.5107C47.0213 49.5107 46.5592 49.5651 46.3055 49.6738C46.0517 49.7826 45.9249 49.9276 45.9249 50.1088C45.9249 50.2598 46.0034 50.3716 46.1605 50.4441C46.3236 50.5166 46.526 50.5649 46.7676 50.5891C47.0093 50.6132 47.3566 50.6344 47.8097 50.6525C48.5528 50.6706 49.172 50.7159 49.6674 50.7884C50.1628 50.8609 50.5917 51.0331 50.9542 51.305C51.3227 51.5768 51.507 51.9876 51.507 52.5374C51.507 53.1657 51.2049 53.6731 50.6008 54.0598C50.0027 54.4464 49.0391 54.6397 47.71 54.6397ZM57.1118 54.5129L54.3207 51.2506L57.0121 48.1695H59.4588L56.0515 51.8215V50.5981L59.64 54.5129H57.1118ZM52.5717 54.5129V48.1695H54.5291V54.5129H52.5717ZM59.7442 54.5129V52.9723H61.611V49.7101H59.7442V48.1695H65.4351V49.7101H63.5683V52.9723H65.4351V54.5129H59.7442ZM66.5539 54.5129V48.1695H69.5806L70.659 51.2778C70.7919 51.7369 70.8583 52.048 70.8583 52.2111V52.3018H71.0215V52.2111C71.0215 52.048 71.0879 51.7369 71.2208 51.2778L72.2992 48.1695H75.3259V54.5129H73.45V51.3321C73.45 50.879 73.4682 50.5045 73.5044 50.2085C73.5467 49.9124 73.6071 49.6225 73.6856 49.3385H73.5225L72.0364 53.4707H69.8434L68.3573 49.3385H68.1941C68.2727 49.6225 68.3331 49.9124 68.3754 50.2085C68.4177 50.5045 68.4388 50.879 68.4388 51.3321V54.5129H66.5539Z" fill="white"/>
</g>
<defs>
<clipPath id="clip0_157_1611">
<rect width="100" height="60" fill="white"/>
</clipPath>
</defs>
</svg>
