<svg width="73" height="50" viewBox="0 0 73 50" fill="none" xmlns="http://www.w3.org/2000/svg">
<path d="M59.4421 49.9697V38.9209H62.2226L65.9986 43.8739L69.373 38.9209H72.551V49.9697H69.373V44.6359L65.9986 48.8222L62.6198 44.6359V49.9697H59.4417H59.4421Z" fill="white"/>
<path d="M9.76811 38.9209H6.45756V45.0168C6.45756 45.3976 6.45756 46.5831 5.3987 46.9216C4.44532 47.2263 2.88275 46.2868 2.22064 45.7788L0.234314 47.6837C0.896424 48.4457 2.93568 49.9697 5.79582 49.9697C9.37099 49.9697 9.76811 46.57 9.76811 44.6359V38.9209Z" fill="white"/>
<path d="M21.0349 38.9209H11.104V49.9697H21.0349V47.3028H14.6792V45.7788H20.2407V43.1119H14.6792V41.5878H21.0349V38.9209Z" fill="white"/>
<path d="M32.1576 38.9209H22.2267V41.5878H25.8019V49.9697H28.9799V41.5878H32.158V38.9209H32.1576Z" fill="white"/>
<path d="M37.934 38.9209C40.1584 38.9209 41.7738 39.937 42.3038 40.445C41.9067 40.953 41.0325 42.0452 40.715 42.3498C40.3179 41.969 38.7662 41.3852 37.4121 41.6494C36.0579 41.9136 36.5171 42.5171 37.0924 42.731C37.6672 42.945 39.9091 43.1968 41.3545 43.8389C43.3218 44.7132 43.1068 46.582 42.5768 47.844C41.9826 49.2587 40.3179 49.9697 37.5373 49.9697C35.3126 49.9697 33.4325 48.4457 32.7704 47.6837L34.7567 46.1596C35.2075 46.4184 36.3058 46.9854 37.0927 47.1829C38.0764 47.4297 39.7408 47.2409 39.8923 46.5445C40.0437 45.8477 37.2745 45.5867 36.5178 45.4851C35.7612 45.3834 33.1679 44.6359 33.1679 42.7307C33.1679 40.8254 35.1542 38.9209 37.9348 38.9209H37.934Z" fill="white"/>
<path d="M46.9408 38.9209H43.7628V49.9697H46.9408V46.16L50.516 49.9697H54.0912L49.3243 44.2547L54.0912 38.9209H50.516L46.9408 43.1119V38.9209Z" fill="white"/>
<path d="M58.3043 38.9209H55.1263V49.9697H58.3043V38.9209Z" fill="white"/>
<path d="M15.7209 22.7952L0.512451 2.83856L30.3027 15.2555L15.7205 22.7952H15.7209Z" fill="white"/>
<path d="M32.0941 7.90379L27.3801 11.7198L21.6708 9.21246L16.7148 0L32.0941 7.90379Z" fill="white"/>
<path d="M39.6824 4.19023L45.648 10.0517L39.0754 10.8958L32.1054 14.1458L29.2537 12.867L39.6821 4.19023H39.6824Z" fill="white"/>
<path d="M65.1269 7.44788C55.2384 8.57725 54.1426 8.82981 47.773 9.66581L42.2896 4.6239C47.9384 5.49161 60.2604 7.10058 65.1269 7.44752V7.44788Z" fill="white"/>
<path d="M39.0506 13.5179L4.72345 30.4377L65.9909 9.17931C55.1278 10.9147 44.6993 12.6502 39.0506 13.5179Z" fill="white"/>
<path d="M0 34.7591L72.9996 8.7285C72.9996 8.7285 59.7304 25.2854 47.7975 30.4206C38.1648 34.566 21.2915 34.7591 21.2915 34.7591H0Z" fill="white"/>
</svg>
