<svg width="32" height="32" viewBox="0 0 32 32" fill="none" xmlns="http://www.w3.org/2000/svg">
<circle cx="16" cy="16" r="15.5" stroke="#CFCFCF"/>
<path d="M16.0001 9.04346C12.1601 9.04346 9.04358 12.16 9.04358 16C9.04358 19.84 12.1601 22.9565 16.0001 22.9565C19.8401 22.9565 22.9566 19.84 22.9566 16C22.9566 12.16 19.8401 9.04346 16.0001 9.04346ZM19.2279 13.7739C19.1236 14.873 18.6714 17.5443 18.4418 18.7756C18.3444 19.2974 18.1497 19.4713 17.9688 19.4922C17.5653 19.5269 17.2592 19.2278 16.8697 18.9704C16.2575 18.5669 15.9097 18.3165 15.3184 17.9269C14.6297 17.4748 15.0749 17.2243 15.4714 16.8208C15.5758 16.7165 17.3566 15.0956 17.3914 14.9495C17.3962 14.9274 17.3956 14.9044 17.3895 14.8826C17.3835 14.8608 17.3722 14.8408 17.3566 14.8243C17.3149 14.7895 17.2592 14.8035 17.2105 14.8104C17.1479 14.8243 16.174 15.4713 14.2749 16.7513C13.9966 16.9391 13.7462 17.0365 13.5236 17.0295C13.2731 17.0226 12.8001 16.8904 12.4453 16.7722C12.0071 16.633 11.6662 16.5565 11.694 16.313C11.7079 16.1878 11.8818 16.0626 12.2088 15.9304C14.2401 15.0469 15.5897 14.4626 16.2644 14.1843C18.1984 13.3774 18.5949 13.2382 18.8592 13.2382C18.9149 13.2382 19.0471 13.2522 19.1305 13.3217C19.2001 13.3774 19.221 13.4539 19.2279 13.5095C19.221 13.5513 19.2349 13.6765 19.2279 13.7739Z" fill="#CFCFCF"/>
</svg>
