<svg width="46" height="46" viewBox="0 0 46 46" fill="none" xmlns="http://www.w3.org/2000/svg">
<circle cx="23" cy="23" r="22" stroke="#DAE2E7" stroke-width="2"/>
<path d="M23 13C17.48 13 13 17.48 13 23C13 28.52 17.48 33 23 33C28.52 33 33 28.52 33 23C33 17.48 28.52 13 23 13ZM27.64 19.8C27.49 21.38 26.84 25.22 26.51 26.99C26.37 27.74 26.09 27.99 25.83 28.02C25.25 28.07 24.81 27.64 24.25 27.27C23.37 26.69 22.87 26.33 22.02 25.77C21.03 25.12 21.67 24.76 22.24 24.18C22.39 24.03 24.95 21.7 25 21.49C25.0069 21.4582 25.006 21.4252 24.9973 21.3938C24.9886 21.3624 24.9724 21.3337 24.95 21.31C24.89 21.26 24.81 21.28 24.74 21.29C24.65 21.31 23.25 22.24 20.52 24.08C20.12 24.35 19.76 24.49 19.44 24.48C19.08 24.47 18.4 24.28 17.89 24.11C17.26 23.91 16.77 23.8 16.81 23.45C16.83 23.27 17.08 23.09 17.55 22.9C20.47 21.63 22.41 20.79 23.38 20.39C26.16 19.23 26.73 19.03 27.11 19.03C27.19 19.03 27.38 19.05 27.5 19.15C27.6 19.23 27.63 19.34 27.64 19.42C27.63 19.48 27.65 19.66 27.64 19.8Z" fill="#1C75A4"/>
</svg>
