<svg width="46" height="46" viewBox="0 0 46 46" fill="none" xmlns="http://www.w3.org/2000/svg">
<circle cx="23" cy="23" r="22" stroke="#DAE2E7" stroke-width="2"/>
<path d="M23.001 13C28.524 13 33.001 17.477 33.001 23C33.001 28.523 28.524 33 23.001 33C21.2337 33.003 19.4976 32.5353 17.971 31.645L13.005 33L14.357 28.032C13.466 26.5049 12.9979 24.768 13.001 23C13.001 17.477 17.478 13 23.001 13ZM19.593 18.3L19.393 18.308C19.2637 18.3169 19.1373 18.3509 19.021 18.408C18.9126 18.4695 18.8136 18.5463 18.727 18.636C18.607 18.749 18.539 18.847 18.466 18.942C18.0961 19.4229 17.897 20.0133 17.9 20.62C17.902 21.11 18.03 21.587 18.23 22.033C18.639 22.935 19.312 23.89 20.2 24.775C20.414 24.988 20.624 25.202 20.85 25.401C21.9534 26.3724 23.2683 27.073 24.69 27.447L25.258 27.534C25.443 27.544 25.628 27.53 25.814 27.521C26.1052 27.5056 26.3895 27.4268 26.647 27.29C26.7778 27.2223 26.9056 27.1489 27.03 27.07C27.03 27.07 27.0723 27.0413 27.155 26.98C27.29 26.88 27.373 26.809 27.485 26.692C27.569 26.6053 27.639 26.5047 27.695 26.39C27.773 26.227 27.851 25.916 27.883 25.657C27.907 25.459 27.9 25.351 27.897 25.284C27.893 25.177 27.804 25.066 27.707 25.019L27.125 24.758C27.125 24.758 26.255 24.379 25.723 24.137C25.6673 24.1128 25.6077 24.0989 25.547 24.096C25.4786 24.0888 25.4094 24.0965 25.3442 24.1184C25.279 24.1403 25.2192 24.176 25.169 24.223C25.164 24.221 25.097 24.278 24.374 25.154C24.3325 25.2098 24.2753 25.2519 24.2098 25.2751C24.1443 25.2982 24.0733 25.3013 24.006 25.284C23.9408 25.2666 23.877 25.2446 23.815 25.218C23.691 25.166 23.648 25.146 23.563 25.11C22.9889 24.8599 22.4574 24.5215 21.988 24.107C21.862 23.997 21.745 23.877 21.625 23.761C21.2316 23.3842 20.8887 22.958 20.605 22.493L20.546 22.398C20.5043 22.3338 20.47 22.265 20.444 22.193C20.406 22.046 20.505 21.928 20.505 21.928C20.505 21.928 20.748 21.662 20.861 21.518C20.971 21.378 21.064 21.242 21.124 21.145C21.242 20.955 21.279 20.76 21.217 20.609C20.937 19.925 20.6477 19.2447 20.349 18.568C20.29 18.434 20.115 18.338 19.956 18.319C19.902 18.3123 19.848 18.307 19.794 18.303C19.6597 18.2953 19.5251 18.2966 19.391 18.307L19.593 18.3Z" fill="#1C75A4"/>
</svg>
