<svg width="32" height="32" viewBox="0 0 32 32" fill="none" xmlns="http://www.w3.org/2000/svg">
<circle cx="16" cy="16" r="15.5" stroke="#CFCFCF"/>
<path d="M16.0007 9.04346C19.8428 9.04346 22.9572 12.1579 22.9572 16C22.9572 19.8421 19.8428 22.9565 16.0007 22.9565C14.7713 22.9586 13.5636 22.6333 12.5016 22.0139L9.04698 22.9565L9.9875 19.5005C9.36765 18.4382 9.04205 17.2299 9.0442 16C9.0442 12.1579 12.1586 9.04346 16.0007 9.04346ZM13.6299 12.7304L13.4908 12.736C13.4009 12.7422 13.313 12.7658 13.232 12.8055C13.1566 12.8483 13.0877 12.9018 13.0275 12.9642C12.944 13.0428 12.8967 13.1109 12.8459 13.177C12.5886 13.5116 12.4501 13.9223 12.4522 14.3443C12.4536 14.6852 12.5426 15.017 12.6818 15.3273C12.9663 15.9548 13.4345 16.6191 14.0522 17.2348C14.2011 17.3829 14.3472 17.5318 14.5044 17.6702C15.272 18.346 16.1867 18.8334 17.1757 19.0935L17.5708 19.1541C17.6995 19.161 17.8282 19.1513 17.9576 19.145C18.1602 19.1343 18.3579 19.0795 18.5371 18.9843C18.6281 18.9373 18.717 18.8862 18.8035 18.8313C18.8035 18.8313 18.833 18.8113 18.8905 18.7687C18.9844 18.6991 19.0421 18.6497 19.12 18.5683C19.1785 18.508 19.2272 18.438 19.2661 18.3582C19.3204 18.2448 19.3746 18.0285 19.3969 17.8483C19.4136 17.7106 19.4087 17.6355 19.4066 17.5888C19.4039 17.5144 19.3419 17.4372 19.2745 17.4045L18.8696 17.2229C18.8696 17.2229 18.2644 16.9593 17.8943 16.7909C17.8555 16.7741 17.8141 16.7644 17.7719 16.7624C17.7243 16.7574 17.6761 16.7627 17.6308 16.778C17.5854 16.7932 17.5438 16.818 17.5089 16.8508C17.5054 16.8494 17.4588 16.889 16.9559 17.4984C16.927 17.5372 16.8872 17.5665 16.8416 17.5826C16.796 17.5987 16.7467 17.6009 16.6999 17.5888C16.6545 17.5768 16.6101 17.5614 16.567 17.5429C16.4807 17.5068 16.4508 17.4928 16.3917 17.4678C15.9923 17.2938 15.6226 17.0584 15.296 16.7701C15.2084 16.6935 15.127 16.6101 15.0435 16.5294C14.7698 16.2673 14.5313 15.9708 14.3339 15.6473L14.2929 15.5812C14.2639 15.5365 14.2401 15.4887 14.2219 15.4386C14.1955 15.3363 14.2644 15.2542 14.2644 15.2542C14.2644 15.2542 14.4334 15.0692 14.512 14.969C14.5885 14.8716 14.6532 14.777 14.695 14.7095C14.7771 14.5774 14.8028 14.4417 14.7597 14.3367C14.5649 13.8608 14.3636 13.3876 14.1559 12.9168C14.1148 12.8236 13.9931 12.7568 13.8825 12.7436C13.8449 12.739 13.8073 12.7353 13.7698 12.7325C13.6764 12.7271 13.5827 12.7281 13.4894 12.7353L13.6299 12.7304Z" fill="#CFCFCF"/>
</svg>
