<svg width="46" height="46" viewBox="0 0 46 46" fill="none" xmlns="http://www.w3.org/2000/svg">
<circle cx="23" cy="23" r="22" stroke="#DAE2E7" stroke-width="2"/>
<path d="M21 26.4286L26.19 23L21 19.5714V26.4286ZM32.56 17.48C32.69 18.0171 32.78 18.7371 32.84 19.6514C32.91 20.5657 32.94 21.3543 32.94 22.04L33 23C33 25.5029 32.84 27.3429 32.56 28.52C32.31 29.5486 31.73 30.2114 30.83 30.4971C30.36 30.6457 29.5 30.7486 28.18 30.8171C26.88 30.8971 25.69 30.9314 24.59 30.9314L23 31C18.81 31 16.2 30.8171 15.17 30.4971C14.27 30.2114 13.69 29.5486 13.44 28.52C13.31 27.9829 13.22 27.2629 13.16 26.3486C13.09 25.4343 13.06 24.6457 13.06 23.96L13 23C13 20.4971 13.16 18.6571 13.44 17.48C13.69 16.4514 14.27 15.7886 15.17 15.5029C15.64 15.3543 16.5 15.2514 17.82 15.1829C19.12 15.1029 20.31 15.0686 21.41 15.0686L23 15C27.19 15 29.8 15.1829 30.83 15.5029C31.73 15.7886 32.31 16.4514 32.56 17.48Z" fill="#1C75A4"/>
</svg>
