<svg width="32" height="32" viewBox="0 0 32 32" fill="none" xmlns="http://www.w3.org/2000/svg">
<circle cx="16" cy="16" r="15.5" stroke="#CFCFCF"/>
<path d="M14.6088 18.3854L18.2192 16.0003L14.6088 13.6152V18.3854ZM22.6505 12.1603C22.741 12.5339 22.8036 13.0348 22.8453 13.6708C22.894 14.3069 22.9149 14.8554 22.9149 15.3324L22.9566 16.0003C22.9566 17.7414 22.8453 19.0214 22.6505 19.8403C22.4766 20.5558 22.0731 21.0169 21.4471 21.2157C21.1201 21.319 20.5218 21.3906 19.6036 21.4383C18.6992 21.4939 17.8714 21.5178 17.1062 21.5178L16.0001 21.5655C13.0853 21.5655 11.2697 21.4383 10.5531 21.2157C9.92706 21.0169 9.52358 20.5558 9.34967 19.8403C9.25923 19.4666 9.19662 18.9657 9.15488 18.3297C9.10619 17.6937 9.08532 17.1451 9.08532 16.6681L9.04358 16.0003C9.04358 14.2592 9.15488 12.9792 9.34967 12.1603C9.52358 11.4447 9.92706 10.9836 10.5531 10.7849C10.8801 10.6815 11.4784 10.61 12.3966 10.5623C13.301 10.5066 14.1288 10.4828 14.894 10.4828L16.0001 10.4351C18.9149 10.4351 20.7305 10.5623 21.4471 10.7849C22.0731 10.9836 22.4766 11.4447 22.6505 12.1603Z" fill="#CFCFCF"/>
</svg>
